<?xml version="1.0" standalone="no"?>
<!DOCTYPE svg PUBLIC "-//W3C//DTD SVG 20010904//EN"
 "http://www.w3.org/TR/2001/REC-SVG-20010904/DTD/svg10.dtd">
<svg version="1.0" xmlns="http://www.w3.org/2000/svg"
 width="700.000000pt" height="700.000000pt" viewBox="0 0 700.000000 700.000000"
 preserveAspectRatio="xMidYMid meet">
<metadata>
Created by potrace 1.14, written by Peter Selinger 2001-2017
</metadata>
<g transform="translate(0.000000,700.000000) scale(0.100000,-0.100000)"
fill="#000000" stroke="none">
<path d="M5984 5714 c-119 -124 -194 -218 -194 -240 0 -6 -36 -81 -204 -426
l-96 -198 -98 0 -97 0 -60 -90 c-57 -86 -66 -94 -212 -197 -84 -59 -153 -114
-154 -123 0 -8 -2 -45 -2 -81 l-2 -66 -89 -112 c-50 -61 -93 -111 -96 -111 -3
0 -46 41 -94 90 -49 50 -96 90 -105 90 -9 0 -47 -9 -86 -19 l-70 -19 -1 -52
c-2 -40 -6 -56 -20 -64 -33 -19 -413 -216 -418 -216 -2 0 35 84 83 188 l88
187 -45 60 c-60 80 -55 75 -83 80 -13 2 -58 9 -99 15 -41 6 -84 13 -96 15 -17
2 -24 -8 -43 -65 -21 -62 -31 -74 -124 -161 -203 -190 -189 -181 -292 -210
-51 -15 -98 -30 -104 -34 -7 -3 -37 -42 -67 -86 -65 -92 -48 -96 -173 33 -46
49 -86 87 -87 85 -2 -2 -31 -124 -64 -272 -34 -149 -63 -271 -64 -273 -2 -1
-67 65 -145 147 l-143 150 -84 -56 -84 -56 -222 57 -223 56 -185 0 c-102 -1
-191 -1 -199 -1 -9 1 -11 9 -6 29 4 15 8 34 10 42 16 76 69 277 75 283 4 4 31
-38 59 -95 29 -57 57 -108 62 -114 6 -7 31 -7 86 2 43 7 79 13 79 13 1 1 -6
38 -16 84 -18 86 -57 269 -65 303 -2 10 -12 56 -21 102 -17 81 -18 83 -42 77
-82 -20 -90 -29 -287 -324 l-190 -284 -120 -59 c-111 -55 -122 -58 -169 -53
-47 7 -51 5 -79 -27 -16 -18 -56 -62 -89 -98 -34 -36 -72 -77 -86 -92 l-25
-27 27 -76 27 -75 -79 -113 c-43 -61 -81 -117 -85 -124 -4 -7 4 -79 17 -160
14 -81 28 -166 31 -188 3 -22 8 -51 11 -65 11 -59 13 -69 18 -106 3 -22 14
-85 23 -141 9 -56 15 -104 12 -106 -2 -2 -88 -45 -191 -95 -104 -50 -188 -95
-188 -99 0 -5 57 -154 126 -333 69 -179 139 -363 156 -410 33 -90 104 -185
119 -158 6 12 74 280 85 337 9 44 23 58 71 71 26 7 71 21 99 32 49 17 50 19
53 61 2 23 4 56 6 72 1 17 6 75 10 130 4 55 9 107 11 115 1 8 3 30 3 48 l1 32
178 0 177 0 80 -140 c44 -77 83 -139 86 -140 4 0 65 -27 135 -61 71 -33 142
-66 159 -74 l29 -14 19 62 c70 237 66 227 95 223 15 -3 53 -7 85 -10 236 -24
398 -43 403 -49 3 -2 7 -26 11 -53 5 -47 9 -52 86 -114 73 -59 83 -64 121 -61
110 9 91 28 182 -182 l81 -188 209 -105 c115 -57 214 -104 219 -104 6 0 71 27
146 61 l135 61 74 -36 74 -36 93 55 93 56 -36 45 c-20 24 -35 46 -33 49 3 2
55 12 116 23 l111 19 72 -44 c75 -46 78 -46 350 -79 19 -2 49 -6 66 -9 32 -6
36 -3 261 171 73 57 91 66 178 89 53 14 101 27 105 30 5 3 6 83 3 178 -3 94
-7 190 -7 211 -1 36 2 40 34 51 19 7 79 29 132 48 l97 36 116 -100 c65 -54
118 -99 119 -99 2 0 175 -38 211 -46 81 -19 75 -22 140 70 33 47 62 86 66 86
3 0 6 -13 7 -28 0 -16 5 -64 11 -108 6 -43 13 -101 16 -129 3 -27 7 -63 9 -80
2 -16 9 -78 16 -137 7 -60 16 -108 19 -109 3 0 45 -1 94 -2 l87 -2 1 40 c1 22
2 63 4 90 9 194 6 325 -9 390 -9 39 -21 93 -26 120 -6 28 -22 100 -36 160 -31
136 -40 176 -55 244 -11 52 -39 90 -181 246 l-27 29 -23 -29 c-63 -80 -58 -77
-113 -61 -27 9 -51 15 -53 15 -3 -1 -63 11 -83 17 -14 4 -14 15 -3 102 7 53
15 124 19 157 4 33 8 74 10 90 2 17 7 59 10 95 4 36 8 72 10 80 1 8 6 42 9 75
12 107 17 139 28 160 13 24 220 362 258 422 24 38 27 51 30 160 1 65 4 152 5
193 2 41 4 103 4 137 l1 61 51 11 c29 6 54 9 56 7 3 -3 17 -56 33 -118 51
-210 114 -473 116 -488 2 -8 10 -44 20 -80 l17 -65 76 -48 c42 -26 131 -84
199 -127 67 -44 122 -77 122 -74 0 3 -25 103 -55 222 -50 198 -76 266 -115
302 -3 3 -44 59 -90 124 l-84 120 -2 255 c-1 197 -5 271 -17 321 -17 72 -66
284 -73 315 -6 33 -25 117 -35 156 -9 36 -10 36 -82 48 -39 6 -77 15 -83 19
-5 4 -23 37 -38 74 l-29 67 59 78 c33 43 61 80 64 83 3 3 15 18 27 33 l22 28
-52 84 c-29 46 -55 84 -58 85 -3 0 -69 -66 -145 -146z"/>
<path d="M2695 4371 c-11 -2 -48 -21 -83 -42 -35 -22 -66 -39 -68 -39 -13 0
-108 -69 -172 -127 l-77 -68 1 -92 c0 -51 4 -96 7 -100 10 -10 138 -10 144 0
3 5 5 39 5 76 0 38 3 72 7 77 20 30 282 205 380 255 64 32 109 59 101 60 -48
3 -229 3 -245 0z"/>
<path d="M6114 2833 c2 -30 40 -94 180 -304 l177 -267 55 22 c29 11 54 25 54
29 0 23 -162 244 -236 322 -48 50 -116 123 -152 163 -37 39 -69 72 -73 72 -4
0 -6 -17 -5 -37z"/>
</g>
</svg>
